<svg xmlns="http://www.w3.org/2000/svg" width="170" height="52" fill="none" viewBox="0 0 170 52">
  <path fill="#1e2e52"
    d="M70.6 6v17.455h-3.188l-7.594-10.986h-.128v10.986H56V6h3.239l7.534 10.978h.153V6zm8.946 17.71q-2.019 0-3.477-.817a5.6 5.6 0 0 1-2.233-2.336q-.784-1.516-.784-3.588 0-2.02.784-3.545a5.8 5.8 0 0 1 2.207-2.378q1.432-.852 3.358-.852 1.296 0 2.412.417a5.35 5.35 0 0 1 1.96 1.236q.844.825 1.313 2.08.47 1.244.469 2.914v.998H74.501v-2.25h7.636q0-.784-.34-1.39a2.44 2.44 0 0 0-.947-.946q-.596-.35-1.389-.35-.827 0-1.466.384-.63.375-.989 1.015-.357.63-.366 1.406v2.139q0 .97.358 1.679a2.6 2.6 0 0 0 1.031 1.09q.665.386 1.577.384.605 0 1.108-.17t.86-.511q.36-.342.546-.836l3.358.222a4.6 4.6 0 0 1-1.048 2.114q-.785.894-2.029 1.397-1.236.495-2.855.495m15.341-13.346v2.727h-7.883v-2.727zm-6.094-3.137h3.631v12.204q0 .503.153.784a.85.85 0 0 0 .427.384q.28.11.647.11.254 0 .512-.042l.392-.077.57 2.702q-.38.112-.766.196a6 6 0 0 1-1.202.145q-1.312.052-2.301-.35a3.2 3.2 0 0 1-1.526-1.244q-.544-.844-.537-2.13zm11.042 16.227-3.563-13.09h3.673l2.029 8.795h.119l2.114-8.796h3.605l2.148 8.744h.11l1.995-8.744h3.664l-3.554 13.091h-3.843l-2.25-8.233h-.162l-2.25 8.233zm23.418.256q-1.986 0-3.435-.844a5.8 5.8 0 0 1-2.224-2.37q-.784-1.524-.784-3.536 0-2.03.784-3.546a5.7 5.7 0 0 1 2.224-2.37q1.449-.85 3.435-.851 1.986 0 3.426.852a5.7 5.7 0 0 1 2.233 2.37q.784 1.515.784 3.545 0 2.01-.784 3.537a5.76 5.76 0 0 1-2.233 2.369q-1.44.844-3.426.844m.017-2.813q.903 0 1.508-.511.606-.52.912-1.415.316-.895.316-2.037t-.316-2.037q-.306-.894-.912-1.415-.605-.52-1.508-.52-.912 0-1.534.52-.614.52-.929 1.415-.307.896-.307 2.037 0 1.14.307 2.037.315.895.929 1.415.622.51 1.534.511m8.787 2.557v-13.09h3.52v2.283h.136q.358-1.22 1.202-1.84a3.16 3.16 0 0 1 1.943-.631 5.5 5.5 0 0 1 1.142.127v3.222a5 5 0 0 0-.707-.136 6 6 0 0 0-.827-.06q-.8 0-1.432.35a2.6 2.6 0 0 0-.989.954q-.357.615-.357 1.415v7.406zm13.11-3.767.008-4.355h.529l4.193-4.969h4.168l-5.634 6.58h-.861zm-3.29 3.767V6h3.631v17.455zm8.182 0-3.852-5.702 2.42-2.565 5.685 8.267z" />
  <path fill="#6366f1"
    d="M63.956 45.454H60L66.026 28h4.755L76.8 45.454h-3.954l-4.372-13.466h-.137zm-.248-6.86h9.341v2.88h-9.34zm15.124 6.86v-13.09h3.52v2.283h.136q.36-1.218 1.202-1.84a3.16 3.16 0 0 1 1.943-.631q.295.003.588.034.315.035.554.093v3.222a5 5 0 0 0-.707-.136 6 6 0 0 0-.827-.06q-.8 0-1.432.35a2.57 2.57 0 0 0-.988.954q-.358.614-.358 1.415v7.406zm15.177.256q-2.02 0-3.477-.819a5.6 5.6 0 0 1-2.233-2.335q-.784-1.516-.784-3.588-.001-2.02.784-3.545a5.8 5.8 0 0 1 2.207-2.378q1.432-.852 3.358-.852 1.296 0 2.412.417 1.125.41 1.96 1.236.844.825 1.313 2.08.468 1.244.468 2.914v.997H88.963v-2.25H96.6q0-.783-.341-1.389a2.44 2.44 0 0 0-.946-.946q-.597-.35-1.39-.35-.826 0-1.465.384-.63.375-.989 1.015-.358.63-.366 1.406v2.139q0 .972.358 1.679a2.6 2.6 0 0 0 1.03 1.09q.666.385 1.577.384.606 0 1.108-.17.504-.17.861-.511.358-.342.546-.836l3.358.222a4.6 4.6 0 0 1-1.049 2.114q-.784.894-2.028 1.397-1.236.495-2.855.495m12.111-.009q-1.254 0-2.233-.434a3.6 3.6 0 0 1-1.551-1.305q-.563-.868-.563-2.164 0-1.09.4-1.833a3.24 3.24 0 0 1 1.092-1.193 5.3 5.3 0 0 1 1.568-.682q.885-.23 1.858-.324 1.142-.12 1.841-.221.698-.111 1.014-.324.315-.213.315-.63v-.052q0-.81-.511-1.253-.503-.443-1.432-.443-.98 0-1.56.435a2 2 0 0 0-.767 1.074l-3.358-.273c.154-.762.5-1.472 1.006-2.062q.75-.879 1.935-1.347 1.193-.477 2.761-.477a8.4 8.4 0 0 1 2.088.255 5.5 5.5 0 0 1 1.781.793 3.85 3.85 0 0 1 1.236 1.38q.452.836.452 2.003v8.83h-3.443v-1.815h-.103q-.315.614-.843 1.082c-.374.32-.805.565-1.27.724q-.743.256-1.713.256m1.039-2.505q.801 0 1.415-.316.614-.324.963-.87.35-.545.35-1.235v-1.39a2 2 0 0 1-.469.205 9 9 0 0 1-.656.162q-.367.07-.733.128l-.665.094c-.384.05-.759.151-1.117.298a1.8 1.8 0 0 0-.741.554q-.264.34-.264.852 0 .742.537 1.134.544.384 1.38.384" />
  <path fill="#1e2e52"
    d="M23 42c9.941 0 18-8.058 18-18 0-9.94-8.059-18-18-18S5 14.06 5 24s8.06 18 18 18" />
  <path fill="#fff" d="M23 39c8.285 0 15-6.715 15-15S31.285 9 23 9 8 15.717 8 24s6.716 15 15 15" />
  <path fill="#6366f1"
    d="M23 35c6.075 0 11-4.924 11-11s-4.925-11-11-11-11 4.926-11 11 4.925 11 11 11" />
  <path fill="#fff" d="M23 30a6 6 0 1 0 0-12 6 6 0 0 0 0 12" />
  <path fill="#6665f1" d="M40 47a5 5 0 1 0 0-10.001A5 5 0 0 0 40 47" />
  <path fill="#fff" d="M40 45a3 3 0 1 0 0-6 3 3 0 0 0 0 6" />
  <path fill="#6665f1" d="M5 47a5 5 0 1 0 0-10.001A5 5 0 0 0 5 47" />
  <path fill="#f95151" d="M5 45a3 3 0 1 0 0-6 3 3 0 0 0 0 6" />
  <path fill="#6665f1" d="M40 10A5 5 0 1 0 40-.001 5 5 0 0 0 40 10" />
  <path fill="#f95151" d="M40 8a3 3 0 1 0 0-6 3 3 0 0 0 0 6" />
  <rect width="44.045" height="1" x="17" y="45.376" fill="#f95151" rx=".5"
    transform="rotate(-80 17 45.376)" />
  <rect width="99" height="1" x="52" y="1" fill="#f95151" rx=".5" />
</svg>