<svg xmlns="http://www.w3.org/2000/svg" width="30" height="30" fill="none" viewBox="0 0 30 30">
  <path fill="#1e2e52"
    d="M15.333 26.809c6.628 0 12-5.144 12-11.49 0-6.345-5.372-11.49-12-11.49-6.627 0-12 5.146-12 11.49s5.373 11.49 12 11.49" />
  <path fill="#fff"
    d="M15.333 24.894c5.523 0 10-4.287 10-9.575s-4.477-9.574-10-9.574-10 4.287-10 9.574 4.478 9.574 10 9.574" />
  <path fill="#6366f1"
    d="M15.333 22.34c4.05 0 7.334-3.143 7.334-7.02 0-3.879-3.283-7.022-7.334-7.022-4.05 0-7.333 3.144-7.333 7.021s3.284 7.021 7.333 7.021" />
  <path fill="#fff"
    d="M15.333 19.149c2.21 0 4-1.715 4-3.83s-1.79-3.83-4-3.83-4 1.715-4 3.83 1.791 3.83 4 3.83" />
  <path fill="#6665f1"
    d="M26.666 30C28.507 30 30 28.571 30 26.808c0-1.762-1.493-3.19-3.334-3.19s-3.333 1.428-3.333 3.19S24.825 30 26.666 30" />
  <path fill="#fff"
    d="M26.666 28.723c1.105 0 2-.857 2-1.915 0-1.057-.895-1.915-2-1.915s-2 .858-2 1.915c0 1.058.896 1.915 2 1.915" />
  <path fill="#6665f1"
    d="M3.333 30c1.84 0 3.334-1.429 3.334-3.192 0-1.762-1.493-3.19-3.334-3.19S0 25.045 0 26.807 1.492 30 3.333 30" />
  <path fill="#f95151"
    d="M3.333 28.723c1.105 0 2-.857 2-1.915 0-1.057-.895-1.915-2-1.915s-2 .858-2 1.915c0 1.058.896 1.915 2 1.915" />
  <path fill="#6665f1"
    d="M26.666 6.383C28.507 6.383 30 4.954 30 3.191 30 1.43 28.507 0 26.666 0s-3.333 1.429-3.333 3.191c0 1.763 1.492 3.192 3.333 3.192" />
  <path fill="#f95151"
    d="M26.666 5.106c1.105 0 2-.857 2-1.914 0-1.058-.895-1.915-2-1.915s-2 .857-2 1.915c0 1.057.896 1.914 2 1.914" />
  <rect width="28.152" height=".666" fill="#f95151" rx=".333"
    transform="matrix(.18112 -.98346 .98605 .16647 11.333 28.964)" />
</svg>